<svg width="100" height="100" viewBox="0 0 100 100" fill="none" xmlns="http://www.w3.org/2000/svg">
<rect x="1" y="1" width="98" height="98" rx="49" fill="white" stroke="#4E778E" stroke-width="2"/>
<path d="M69.1326 23.5744C68.1685 22.907 66.8337 23.1295 66.1663 24.0935C65.4989 25.0576 65.7213 26.3924 66.6854 27.0598C74.2494 32.3992 78.773 41.1497 78.773 50.4194C78.773 66.289 65.8697 79.1924 50 79.1924C34.1303 79.1924 21.227 66.289 21.227 50.4194C21.227 34.698 33.9079 21.8688 49.6292 21.7205V24.9834C49.6292 25.9475 50.7416 26.5407 51.5573 26.0216L60.2337 20.6823C61.0494 20.1632 61.0494 19.0508 60.2337 18.5317L51.5573 13.1924C50.7416 12.6733 49.6292 13.2666 49.6292 14.2306V17.4935C31.609 17.716 17 32.3992 17 50.4194C17 68.5879 31.7573 83.4194 50 83.4194C68.2427 83.4194 83 68.6621 83 50.4194C83 39.8149 77.809 29.8037 69.1326 23.5744Z" fill="#B84583"/>
<path d="M29.3843 50.4194C29.3843 61.7655 38.6539 71.0352 50 71.0352C61.3461 71.0352 70.6157 61.8397 70.6157 50.4194C70.6157 39.0734 61.3461 29.8037 50 29.8037C38.6539 29.8037 29.3843 39.0734 29.3843 50.4194ZM66.3888 50.4194C66.3888 59.4666 59.0472 66.8082 50 66.8082C40.9528 66.8082 33.6112 59.4666 33.6112 50.4194C33.6112 41.3722 40.9528 34.0307 50 34.0307C59.0472 34.0307 66.3888 41.3722 66.3888 50.4194Z" fill="#B84583"/>
<path d="M47.9236 41.3723V50.4195C47.9236 51.606 48.8876 52.4959 50 52.4959H57.7123C58.8989 52.4959 59.7888 51.5319 59.7888 50.4195C59.7888 49.233 58.8247 48.3431 57.7123 48.3431H52.1506V41.3723C52.1506 40.1858 51.1865 39.2959 50.0741 39.2959C48.9618 39.2959 47.9236 40.2599 47.9236 41.3723Z" fill="#B84583"/>
</svg>
