<svg width="100" height="100" viewBox="0 0 100 100" fill="none" xmlns="http://www.w3.org/2000/svg">
<rect x="1" y="1" width="98" height="98" rx="49" fill="white" stroke="#4E778E" stroke-width="2"/>
<path d="M21.0039 48.8569C20.9805 49.1754 21.0628 49.4516 21.2515 49.6878L23.4435 52.3047C23.6322 52.5162 23.8792 52.6461 24.1864 52.6936C24.4688 52.7164 24.7519 52.634 25.035 52.4459L49.111 32.37C49.3264 32.1914 49.6747 32.1914 49.8894 32.37L73.9654 52.4459C74.1535 52.6106 74.4012 52.6936 74.7077 52.6936H74.8141C75.12 52.6461 75.3676 52.5162 75.557 52.3047L77.7483 49.6878C77.937 49.4522 78.02 49.1754 77.9959 48.8569C77.9725 48.5383 77.8433 48.2856 77.6077 48.0969L69.864 41.6622V27.2369C69.864 26.9069 69.7576 26.6359 69.5454 26.4243C69.3333 26.2115 69.0622 26.1058 68.7329 26.1058H61.9448C61.6149 26.1058 61.3438 26.2115 61.131 26.4243C60.9188 26.6359 60.8131 26.9076 60.8131 27.2369V34.1313L52.1865 26.919C51.4328 26.3065 50.5367 26 49.4999 26C48.4625 26 47.567 26.3065 46.8127 26.919L21.3921 48.0969C21.1572 48.285 21.0273 48.5383 21.0039 48.8569Z" fill="#B84583"/>
<path d="M49.1091 35.4799C49.1091 35.4799 32.3145 49.3694 29.5399 51.6938C29.3252 51.8736 29.151 52.2486 29.1504 52.5279C29.1453 53.7875 29.1402 64.5408 29.1377 69.5378C29.1371 70.9381 30.2714 72.0724 31.671 72.0724H67.3306C68.7303 72.0724 69.8646 70.9381 69.8646 69.5378V52.6349C69.8646 52.355 69.6904 51.9826 69.4751 51.8033L49.8906 35.4799C49.6747 35.3013 49.3244 35.3013 49.1091 35.4799ZM58.8769 50.7013C59.6186 51.4442 59.5774 52.6875 58.7845 53.4785L48.0476 64.1944C47.8494 64.392 47.5289 64.392 47.3307 64.1938L41.2267 58.0891C40.435 57.2968 40.3951 56.0536 41.1368 55.3113C41.8784 54.5691 43.1229 54.6096 43.9145 55.4013L47.3326 58.82C47.5308 59.0182 47.8519 59.0182 48.0502 58.82L56.0992 50.7881C56.8921 49.9971 58.1359 49.9584 58.8769 50.7013Z" fill="#B84583"/>
</svg>
