<svg width="100" height="100" viewBox="0 0 100 100" fill="none" xmlns="http://www.w3.org/2000/svg">
<rect x="1" y="1" width="98" height="98" rx="49" fill="white" stroke="#4E778E" stroke-width="2"/>
<path d="M78.3705 48.831L75.6245 46.7302C74.7848 46.0886 73.6602 45.2268 73.1226 44.8138C72.585 44.4025 72.3563 43.5526 72.6174 42.928C72.8768 42.3017 73.4212 40.9928 73.8257 40.0166L75.1535 36.8237C75.5579 35.8475 75.034 34.9396 73.9861 34.8031L70.5558 34.356C69.5096 34.2194 68.1017 34.0351 67.4293 33.9481C66.7569 33.8611 66.1356 33.2382 66.0486 32.5675C65.9616 31.8951 65.7772 30.4889 65.6407 29.4411L65.1936 26.0109C65.057 24.9648 64.1474 24.4391 63.1729 24.8436L59.9815 26.1747C59.0053 26.5792 57.6964 27.1236 57.07 27.383C56.4454 27.6441 55.5955 27.4171 55.1842 26.8778C54.7729 26.3385 53.9094 25.2139 53.2677 24.376L51.1651 21.6284C50.5234 20.7905 49.4738 20.7905 48.8321 21.6284L46.7296 24.376C46.0879 25.2139 45.226 26.3403 44.813 26.8778C44.4 27.4154 43.5518 27.6441 42.9272 27.383C42.3009 27.1236 40.9919 26.5792 40.0157 26.1747L36.8243 24.8453C35.8498 24.4409 34.9402 24.9648 34.8036 26.0126L34.3565 29.4428C34.22 30.4889 34.0357 31.8968 33.9486 32.5675C33.8616 33.2382 33.2387 33.8611 32.568 33.9481C31.8973 34.0351 30.4893 34.2194 29.4431 34.356L26.0128 34.8031C24.9666 34.9396 24.441 35.8492 24.8455 36.8237L26.1732 40.0183C26.5777 40.9928 27.1221 42.3034 27.3815 42.928C27.6409 43.5526 27.4139 44.4025 26.8763 44.8138C26.3388 45.2268 25.2124 46.0886 24.3744 46.7302L21.6285 48.8327C20.7905 49.4744 20.7905 50.5239 21.6285 51.1673L24.3744 53.2681C25.2124 53.9097 26.3388 54.7715 26.8763 55.1845C27.4139 55.5975 27.6426 56.4457 27.3815 57.0703C27.1204 57.6949 26.5777 59.0055 26.1732 59.9817L24.8455 63.1729C24.441 64.1474 24.9649 65.057 26.0128 65.1952L29.4431 65.6423C30.4893 65.7789 31.8973 65.9632 32.568 66.0502C33.2404 66.1372 33.8616 66.7584 33.9486 67.4308C34.0357 68.1032 34.22 69.5094 34.3565 70.5555L34.8036 73.9857C34.9402 75.0318 35.8498 75.5574 36.8243 75.153L40.0191 73.827C40.9936 73.4225 42.3043 72.8764 42.9306 72.617C43.5552 72.3576 44.4051 72.5829 44.8164 73.1222C45.2277 73.6615 46.0913 74.7878 46.733 75.6257L48.8355 78.3716C49.4772 79.2095 50.5268 79.2095 51.1685 78.3716L53.2711 75.6257C53.9128 74.7878 54.7746 73.6615 55.1876 73.1222C55.6006 72.5829 56.4488 72.3576 57.0734 72.617C57.6998 72.8764 59.0088 73.4225 59.9849 73.827L63.1798 75.153C64.1542 75.5574 65.0639 75.0335 65.2004 73.9857L65.6475 70.5555C65.7841 69.5094 65.9684 68.1015 66.0554 67.4308C66.1425 66.7601 66.7654 66.1372 67.4361 66.0502C68.1085 65.9632 69.5148 65.7789 70.5626 65.6423L73.993 65.1952C75.0391 65.0587 75.5648 64.1491 75.1603 63.1729L73.8325 59.98C73.4281 59.0038 72.8819 57.6949 72.6225 57.0703C72.3631 56.444 72.5901 55.5958 73.1294 55.1828C73.667 54.7715 74.7951 53.908 75.633 53.2664L78.379 51.1656C79.2084 50.5239 79.2084 49.4727 78.3705 48.831ZM49.9995 69.1971C39.3962 69.1971 30.7999 60.6012 30.7999 49.9983C30.7999 39.3954 39.3962 30.7995 49.9995 30.7995C60.6027 30.7995 69.199 39.3954 69.199 49.9983C69.199 60.6012 60.6027 69.1971 49.9995 69.1971Z" fill="#B84583"/>
<path d="M50 34C41.1626 34 34 41.1643 34 50C34 58.8357 41.1643 66 50 66C58.8357 66 66 58.8357 66 50C66 41.1643 58.8374 34 50 34ZM55.7406 52.3349L57.0964 60.2374L50 56.5076L42.9036 60.2374L44.2577 52.3349L38.5154 46.7403L46.4501 45.5881L50 38.3966L53.5482 45.5881L61.4829 46.7403L55.7406 52.3349Z" fill="#B84583"/>
</svg>
