<svg width="100" height="100" viewBox="0 0 100 100" fill="none" xmlns="http://www.w3.org/2000/svg">
<rect x="1" y="1" width="98" height="98" rx="49" fill="white" stroke="#4E778E" stroke-width="2"/>
<path d="M71.6018 29.931C65.6594 29.4789 60.0399 26.8952 55.7768 22.6321L54.5496 21.4049C52.6764 19.5317 49.4468 19.5317 47.5737 21.4049L46.3464 22.6321C42.148 26.8306 36.5285 29.4143 30.5214 29.931C28.0023 30.1248 26 32.2563 26 34.84V42.0743C26 58.093 34.6553 72.9492 48.6071 80.7648C49.3177 81.1523 50.1574 81.4107 50.997 81.4107C51.8367 81.4107 52.6764 81.2169 53.3869 80.7648C67.3388 72.8846 75.9941 58.093 75.9941 42.0743V34.84C76.1233 32.3209 74.1209 30.1248 71.6018 29.931ZM71.2789 42.0743C71.2789 56.3491 63.5279 69.5904 50.997 76.5663C38.5954 69.5904 30.8444 56.3491 30.8444 42.0743L30.909 34.7754C38.0141 34.1941 44.7316 31.1582 49.7698 26.1201L51.1262 24.8928L52.3535 26.1201C57.3916 31.1582 64.0446 34.2586 71.2143 34.7754H71.4081L71.2789 42.0743Z" fill="#B84583"/>
<path d="M49.1885 38.5863C46.6048 42.8493 42.1479 50.4712 42.1479 53.6362C42.1479 59.7724 46.6048 62.4853 51.0616 62.4853C55.5185 62.4853 59.9753 59.7724 59.9753 53.6362C59.9753 50.4712 55.5185 42.8493 52.9348 38.5863C52.0951 37.1653 50.0282 37.1653 49.1885 38.5863ZM53.3869 57.7701C53.3869 57.9638 53.1932 58.1576 52.9994 58.2868C52.3535 58.4806 51.6429 58.6097 51.0616 58.6097C49.576 58.6097 46.0881 58.1576 46.0881 53.7008C46.0881 53.0548 46.2818 52.1506 46.734 50.9879C46.7986 50.7941 46.9923 50.6004 47.2507 50.6004C47.5091 50.6004 47.7028 50.7295 47.7674 50.9233C49.1239 54.0237 50.9324 56.1553 53.1286 57.2533C53.3223 57.3179 53.4515 57.5117 53.3869 57.7701Z" fill="#B84583"/>
</svg>
