<svg width="100" height="100" viewBox="0 0 100 100" fill="none" xmlns="http://www.w3.org/2000/svg">
<rect x="1" y="1" width="98" height="98" rx="49" fill="white" stroke="#4E778E" stroke-width="2"/>
<path d="M23.6616 32.6485C24.4858 31.6182 25.7221 31.0687 27.0272 31C42.5503 31 58.142 31 73.6651 31C75.5196 31 77.2368 32.305 77.7863 34.0222C78.061 34.7777 77.9923 35.6707 77.9923 36.4949C77.9923 37.5252 77.9923 38.4868 77.9923 39.5171C59.5844 39.5171 41.1078 39.5171 22.7 39.5171C22.7 38.1434 22.7 36.7696 22.7 35.3272C22.7 34.4343 23.0434 33.404 23.6616 32.6485Z" fill="#B84583"/>
<path d="M22.7 46.3857C41.1078 46.3857 59.5844 46.3857 77.9923 46.3857C77.9923 52.6362 77.9923 58.8179 77.9923 65.0684C77.9923 66.0987 77.5802 67.129 76.8933 67.9532C76.2065 68.7087 75.3136 69.2582 74.2833 69.3956C73.8025 69.4643 73.253 69.4643 72.7722 69.4643C57.5238 69.4643 42.2755 69.4643 27.0272 69.4643C25.9282 69.4643 24.8292 68.9835 24.0737 68.2279C23.1808 67.4037 22.7 66.236 22.7 65.0684C22.7 58.8866 22.7 52.6362 22.7 46.3857ZM61.5763 50.6443C60.6147 50.7817 59.7218 51.3311 59.241 52.2241C58.7602 53.0483 58.6915 54.0099 58.9662 54.9028C59.241 55.6584 59.7905 56.3452 60.546 56.6887C61.3016 57.1008 62.1945 57.1695 63.0187 56.8947C63.843 56.62 64.5298 56.0705 64.8732 55.3149C65.2854 54.6281 65.3541 53.7352 65.148 52.9796C64.9419 52.2241 64.4611 51.5372 63.7743 51.1251C63.0874 50.713 62.3319 50.5069 61.5763 50.6443ZM71.3984 51.1938C71.2611 51.2625 71.1237 51.3311 70.9863 51.4685C67.1399 55.2463 63.3622 59.024 59.5157 62.8704C59.241 63.1452 59.1036 63.4886 59.1723 63.832C59.241 64.2441 59.5844 64.5876 59.9965 64.7249C60.4086 64.8623 60.8208 64.7249 61.0955 64.4502C64.9419 60.6725 68.7884 56.826 72.5661 53.0483C72.9782 52.6362 72.9782 51.8806 72.5661 51.5372C72.2914 51.1251 71.8106 50.9877 71.3984 51.1938ZM28.813 53.3917C28.4009 53.3917 28.0575 53.6665 27.9201 54.0099C27.714 54.3533 27.7827 54.7655 27.9888 55.1089C28.1948 55.3836 28.5383 55.5897 28.8817 55.5897C33.2776 55.5897 37.7422 55.5897 42.1381 55.5897C42.5503 55.5897 42.8937 55.3836 43.0997 55.0402C43.3058 54.6968 43.3058 54.1473 43.0311 53.8038C42.825 53.5291 42.4129 53.3917 42.0694 53.3917C37.6735 53.3917 33.2776 53.3917 28.813 53.3917ZM28.813 58.8866C28.4009 58.8866 27.9888 59.2301 27.8514 59.6422C27.714 59.9856 27.7827 60.4664 28.0575 60.7411C28.2635 60.9472 28.607 61.0846 28.8817 61.0846C34.3766 61.0846 39.9402 61.0846 45.4351 61.0846C45.9846 61.0846 46.4654 60.6038 46.534 60.123C46.6027 59.7109 46.328 59.2301 45.9159 59.024C45.7098 58.8866 45.5038 58.8866 45.2977 58.8866C39.8715 58.8866 34.3079 58.8866 28.813 58.8866ZM69.75 58.8866C68.9257 59.024 68.1702 59.5048 67.6894 60.1917C67.2086 60.8785 67.0025 61.7714 67.1399 62.5957C67.2773 63.5573 67.9641 64.3815 68.7884 64.8623C69.6813 65.3431 70.9176 65.3431 71.8106 64.8623C72.7035 64.3815 73.3903 63.4886 73.5277 62.4583C73.6651 61.428 73.3217 60.3977 72.5661 59.7109C71.8106 59.024 70.7803 58.6806 69.75 58.8866Z" fill="#B84583"/>
<path d="M61.6451 52.8422C61.9885 52.7048 62.4693 52.8422 62.744 53.117C63.0188 53.3917 63.0875 53.8038 62.9501 54.1473C62.8127 54.5594 62.3319 54.8341 61.9198 54.7654C61.5077 54.6967 61.0956 54.3533 61.0269 53.8725C60.9582 53.4604 61.2329 52.9796 61.6451 52.8422Z" fill="#B84583"/>
<path d="M70.0935 61.0844C70.5743 60.9471 71.1237 61.2218 71.3298 61.7026C71.4672 62.1147 71.3298 62.5268 71.0551 62.8016C70.7803 63.0763 70.2995 63.145 69.9561 62.939C69.6127 62.7329 69.3379 62.3208 69.4066 61.9087C69.3379 61.5652 69.6813 61.1531 70.0935 61.0844Z" fill="#B84583"/>
</svg>
