<svg width="100" height="100" viewBox="0 0 100 100" fill="none" xmlns="http://www.w3.org/2000/svg">
<rect x="1" y="1" width="98" height="98" rx="49" fill="white" stroke="#4E778E" stroke-width="2"/>
<path d="M52.0901 58.5784H47.192C46.2478 58.5784 45.4216 59.3455 45.4216 60.3488V63.3584C45.4216 64.3026 46.1888 65.1288 47.192 65.1288H52.0901C53.0343 65.1288 53.8605 64.3616 53.8605 63.3584V60.3488C53.8605 59.4045 53.0343 58.5784 52.0901 58.5784Z" fill="#B84583"/>
<path d="M39.4614 58.5784H34.5634C33.6191 58.5784 32.793 59.3455 32.793 60.3488V63.3584C32.793 64.3026 33.5601 65.1288 34.5634 65.1288H39.4614C40.4056 65.1288 41.2318 64.3616 41.2318 63.3584V60.3488C41.2318 59.4045 40.4056 58.5784 39.4614 58.5784Z" fill="#B84583"/>
<path d="M52.0901 47.543H47.192C46.2478 47.543 45.4216 48.3101 45.4216 49.3134V52.323C45.4216 53.2672 46.1888 54.0934 47.192 54.0934H52.0901C53.0343 54.0934 53.8605 53.3262 53.8605 52.323V49.3134C53.8605 48.3691 53.0343 47.543 52.0901 47.543Z" fill="#B84583"/>
<path d="M39.4614 47.543H34.5634C33.6191 47.543 32.793 48.3101 32.793 49.3134V52.323C32.793 53.2672 33.5601 54.0934 34.5634 54.0934H39.4614C40.4056 54.0934 41.2318 53.3262 41.2318 52.323V49.3134C41.2318 48.3691 40.4056 47.543 39.4614 47.543Z" fill="#B84583"/>
<path d="M64.7187 47.543H59.8207C58.8765 47.543 58.0503 48.3101 58.0503 49.3134V52.323C58.0503 53.2672 58.8175 54.0934 59.8207 54.0934H64.7187C65.663 54.0934 66.4891 53.3262 66.4891 52.323V49.3134C66.4891 48.3691 65.663 47.543 64.7187 47.543Z" fill="#B84583"/>
<path d="M75.2822 59.1094V35.6813C75.2822 34.147 74.6921 32.7897 73.7479 31.7275V31.6685H73.6888C72.5676 30.4292 70.9743 29.662 69.2039 29.662H64.7779V27.0064C64.7779 25.8852 63.8927 25 62.7715 25H59.7618C58.6406 25 57.7554 25.8852 57.7554 27.0064V29.662H41.4678V27.0064C41.4678 25.8852 40.5826 25 39.4614 25H36.4517C35.3305 25 34.4453 25.8852 34.4453 27.0064V29.662H30.0193C28.2489 29.662 26.6556 30.4292 25.5343 31.6685V31.7275C24.5901 32.7897 24 34.147 24 35.6813V67.8433C24 71.1481 26.7146 73.8627 30.0193 73.8627H58.2865C60.2339 77.5215 64.0697 80 68.4957 80C74.8691 80 80.0622 74.8069 80.0622 68.4335C80.0622 64.5976 78.1738 61.1749 75.2822 59.1094ZM56.9292 68.4335C56.9292 68.9056 56.9882 69.3777 57.0472 69.8498H30.0193C28.8981 69.8498 28.0129 68.9646 28.0129 67.8433V43.294H71.2103V57.221C70.3251 56.985 69.4399 56.867 68.4957 56.867C62.1223 56.867 56.9292 62.0601 56.9292 68.4335ZM73.2758 67.2532L68.4957 72.3873C68.2006 72.6824 67.7876 72.8594 67.3745 72.8594C66.9614 72.8594 66.5483 72.6824 66.2532 72.3873L63.4206 69.3187C62.8305 68.7285 62.8895 67.7843 63.4796 67.1942C64.0697 66.6041 65.014 66.6631 65.6041 67.2532L67.3745 69.1416L71.0333 65.1878C71.6234 64.5976 72.5676 64.5386 73.1577 65.1288C73.8069 65.7189 73.8659 66.6631 73.2758 67.2532Z" fill="#B84583"/>
</svg>
