<svg width="16" height="31" viewBox="0 0 16 31" fill="none" xmlns="http://www.w3.org/2000/svg">
<path d="M-3.55999e-05 29.0122C-0.000188182 28.8808 0.0256173 28.7507 0.0759007 28.6293C0.126184 28.5079 0.199951 28.3977 0.292963 28.3049L13.5859 15.0064L0.292964 1.70787C0.110805 1.51919 0.0100116 1.26648 0.01229 1.00417C0.0145683 0.741867 0.119738 0.49095 0.305146 0.305465C0.490555 0.11998 0.741367 0.0147677 1.00356 0.0124883C1.26576 0.010209 1.51836 0.111045 1.70697 0.293279L15.707 14.2991C15.7999 14.3919 15.8736 14.5022 15.9238 14.6236C15.9741 14.7449 16 14.875 16 15.0064C16 15.1378 15.9741 15.2678 15.9238 15.3892C15.8736 15.5106 15.7999 15.6208 15.707 15.7137L1.70696 29.7195C1.56711 29.8594 1.38895 29.9546 1.195 29.9932C1.00104 30.0318 0.800009 30.012 0.617309 29.9363C0.434609 29.8606 0.278446 29.7324 0.168562 29.5679C0.0586773 29.4034 6.35313e-06 29.21 -3.55999e-05 29.0122Z" fill="black" fill-opacity="0.2"/>
</svg>
