<svg width="16" height="31" viewBox="0 0 16 31" fill="none" xmlns="http://www.w3.org/2000/svg">
<path d="M16 1.0127C16.0002 1.1441 15.9744 1.27422 15.9241 1.3956C15.8738 1.51699 15.8 1.62723 15.707 1.72L2.41413 15.0185L15.707 28.317C15.8892 28.5057 15.99 28.7584 15.9877 29.0207C15.9854 29.283 15.8803 29.534 15.6949 29.7194C15.5094 29.9049 15.2586 30.0101 14.9964 30.0124C14.7342 30.0147 14.4816 29.9139 14.293 29.7316L0.293035 15.7258C0.200137 15.633 0.126441 15.5227 0.0761607 15.4013C0.02588 15.28 -6.49394e-07 15.1499 -6.55134e-07 15.0185C-6.60874e-07 14.8871 0.02588 14.7571 0.0761607 14.6357C0.126441 14.5143 0.200137 14.4041 0.293035 14.3112L14.293 0.30541C14.4329 0.165542 14.611 0.0702966 14.805 0.0317128C14.999 -0.00687093 15.2 0.0129407 15.3827 0.0886434C15.5654 0.164344 15.7216 0.292537 15.8314 0.457015C15.9413 0.621494 16 0.814872 16 1.0127Z" fill="black" fill-opacity="0.2"/>
<path d="M15.5 1.01281L15.5 1.01328C15.5001 1.07882 15.4872 1.14372 15.4622 1.20425C15.4371 1.26478 15.4003 1.31974 15.3539 1.36598L15.3534 1.36652L2.06051 14.665L1.70718 15.0185L2.06051 15.372L15.3498 28.6669C15.4393 28.761 15.4889 28.8863 15.4877 29.0164C15.4866 29.1477 15.434 29.2732 15.3412 29.366C15.2485 29.4587 15.1231 29.5113 14.9921 29.5124C14.8623 29.5136 14.7371 29.4641 14.6431 29.3746L0.646662 15.3723L0.646504 15.3722C0.600073 15.3258 0.563228 15.2706 0.538086 15.21C0.512943 15.1493 0.499999 15.0842 0.499999 15.0185C0.499999 14.9528 0.512943 14.8878 0.538086 14.8271C0.563228 14.7664 0.600072 14.7113 0.646502 14.6649L0.646662 14.6647L14.6466 0.658943C14.6466 0.658925 14.6466 0.658906 14.6467 0.658889C14.7166 0.588971 14.8056 0.541383 14.9026 0.522104C14.9995 0.50282 15.1 0.512719 15.1913 0.550559C15.2826 0.588401 15.3607 0.652496 15.4157 0.734771C15.4706 0.817048 15.5 0.913806 15.5 1.01281Z" stroke="#31434E" stroke-opacity="0.2"/>
</svg>
