<svg width="59" height="50" viewBox="0 0 59 50" fill="none" xmlns="http://www.w3.org/2000/svg">
<path d="M13 0H59V50H0L13 0Z" fill="#B84583"/>
<path d="M43.6227 13H25.3773C23.514 13 22 14.5098 22 16.368V30.0724C22 31.9307 23.514 33.4405 25.3773 33.4405H34.6553L39.0419 37.7763C39.4689 38.2409 40.2065 37.9312 40.2065 37.3118V33.4405H43.6227C45.486 33.4405 47 31.9307 47 30.0724V16.368C47 14.5098 45.486 13 43.6227 13ZM35.4317 28.2529C35.4317 28.5626 35.1988 28.7949 34.8882 28.7949H33.4519C33.1413 28.7949 32.9084 28.5239 32.9084 28.2142V27.3238C32.9084 27.0141 33.1413 26.7818 33.4519 26.7818H34.8882C35.1988 26.7818 35.4317 27.0141 35.4317 27.3238V28.2529ZM37.722 22.7557C37.3339 23.2977 36.868 23.6848 36.2857 23.9945C35.9752 24.2268 35.7422 24.4591 35.6258 24.6913C35.5481 24.8462 35.5093 25.0397 35.4705 25.3107C35.4705 25.5043 35.2764 25.6592 35.0823 25.6592H33.3354C33.1025 25.6592 32.9084 25.4656 32.9472 25.2333C32.986 24.73 33.1025 24.3429 33.2966 24.0719C33.5683 23.7235 33.9953 23.3364 34.6553 22.8718C35.0047 22.6783 35.2764 22.4073 35.4705 22.0976C35.6646 21.7879 35.7422 21.4007 35.7422 21.0136C35.7422 20.5878 35.6258 20.2393 35.3929 20.0071C35.1599 19.7361 34.8494 19.6199 34.4224 19.6199C34.073 19.6199 33.8012 19.7361 33.5683 19.9296C33.413 20.0458 33.2966 20.2393 33.2578 20.4329C33.1801 20.7039 32.9472 20.8587 32.6755 20.8587L31.0839 20.82C30.8898 20.82 30.7345 20.6265 30.7345 20.4329C30.7733 19.5812 31.1227 18.9231 31.705 18.4585C32.3649 17.9553 33.2578 17.6843 34.3835 17.6843C35.587 17.6843 36.5186 17.9553 37.2174 18.5747C37.9161 19.1941 38.2655 20.0071 38.2655 21.0136C38.2655 21.6717 38.1102 22.2137 37.722 22.7557Z" fill="white"/>
</svg>
