<svg width="21" height="21" viewBox="0 0 21 21" fill="none" xmlns="http://www.w3.org/2000/svg">
<path d="M20.9553 16.2711C20.8959 16.0922 20.518 15.8285 19.8218 15.4808C19.6332 15.3712 19.3645 15.2223 19.0168 15.0333C18.6687 14.8444 18.3528 14.6703 18.0696 14.5111C17.7858 14.3521 17.52 14.198 17.2716 14.049C17.2319 14.0192 17.1076 13.9323 16.8988 13.7878C16.6898 13.6438 16.5135 13.5368 16.369 13.4671C16.2249 13.3978 16.0831 13.3629 15.9439 13.3629C15.7451 13.3629 15.4967 13.5047 15.1985 13.7878C14.9003 14.0714 14.6268 14.3794 14.3783 14.7128C14.1298 15.046 13.8662 15.354 13.5881 15.6374C13.3095 15.9209 13.0807 16.0625 12.9019 16.0625C12.8121 16.0625 12.7002 16.0375 12.5661 15.9881C12.4321 15.9385 12.3301 15.8959 12.2601 15.8616C12.1907 15.8265 12.0717 15.7571 11.9025 15.6524C11.733 15.548 11.6388 15.4908 11.6189 15.4808C10.2567 14.725 9.08842 13.8599 8.11384 12.8858C7.13957 11.9111 6.27434 10.743 5.51865 9.3807C5.50873 9.3608 5.45142 9.2663 5.34709 9.09736C5.24261 8.92826 5.17297 8.8091 5.13817 8.73931C5.10338 8.66978 5.06112 8.56781 5.01149 8.43361C4.96186 8.29941 4.93694 8.18762 4.93694 8.09803C4.93694 7.91916 5.07867 7.69035 5.36208 7.41192C5.64545 7.13364 5.95378 6.87005 6.28677 6.62165C6.62002 6.37326 6.92804 6.09973 7.21151 5.80155C7.49487 5.50322 7.63655 5.25477 7.63655 5.05595C7.63655 4.91683 7.60176 4.775 7.53222 4.63088C7.46264 4.48644 7.35575 4.31018 7.21151 4.10128C7.06722 3.89248 6.98023 3.76831 6.95035 3.72835C6.80136 3.47995 6.6474 3.214 6.48811 2.9306C6.32883 2.64726 6.15496 2.33142 5.96595 1.98346C5.7771 1.63565 5.62805 1.36709 5.51855 1.1782C5.17072 0.482322 4.90726 0.104321 4.72823 0.0448732C4.65859 0.0150448 4.55411 0 4.41504 0C4.14641 0 3.79597 0.049627 3.36346 0.149194C2.93079 0.248605 2.59032 0.352874 2.3417 0.462419C1.84451 0.671114 1.31755 1.27761 0.760646 2.28169C0.253531 3.21614 0 4.14103 0 5.05568C0 5.32393 0.0173966 5.58492 0.0521899 5.83869C0.0869832 6.09221 0.149151 6.37811 0.238747 6.69635C0.328185 7.01449 0.400332 7.25082 0.454873 7.40471C0.509466 7.55871 0.61139 7.83459 0.760594 8.23244C0.909589 8.63019 0.999184 8.87367 1.02901 8.96316C1.377 9.93762 1.78966 10.8076 2.26689 11.5732C3.05209 12.8459 4.12363 14.1611 5.48088 15.5184C6.83819 16.8755 8.15323 17.9469 9.42606 18.7324C10.1917 19.2096 11.062 19.6221 12.0363 19.9704C12.1259 20 12.3694 20.0894 12.767 20.2389C13.1648 20.388 13.4408 20.4899 13.5948 20.5446C13.7488 20.5994 13.9852 20.6716 14.3031 20.7612C14.6217 20.8508 14.9074 20.9129 15.1609 20.948C15.4146 20.9823 15.6756 21 15.9439 21C16.8586 21 17.7836 20.7463 18.7183 20.2393C19.7223 19.6826 20.3287 19.1556 20.5375 18.6581C20.6473 18.4097 20.7513 18.0692 20.8507 17.6365C20.9505 17.2041 21 16.8537 21 16.5852C21.0003 16.4455 20.9853 16.3413 20.9553 16.2711Z" fill="white"/>
</svg>
