<svg width="26" height="25" viewBox="0 0 26 25" fill="none" xmlns="http://www.w3.org/2000/svg">
<path d="M13 -5.33072e-07C6.10526 -8.27104e-07 0.5 5.60526 0.499999 12.5C0.499999 19.3947 6.10526 25 13 25C19.8947 25 25.5 19.3947 25.5 12.5C25.5 5.60526 19.8947 -2.39041e-07 13 -5.33072e-07ZM20 13.2105L15.4474 17.7632C15.2632 17.9474 15 18.0526 14.7368 18.0526C14.4737 18.0526 14.2368 17.9474 14.0263 17.7632C13.6316 17.3684 13.6316 16.7368 14.0263 16.3684L16.8947 13.5L6.71052 13.5C6.15789 13.5 5.71052 13.0526 5.71052 12.5C5.71052 11.9474 6.15789 11.5 6.71052 11.5L16.8947 11.5L14.0263 8.65789C13.6316 8.26316 13.6316 7.63158 14.0263 7.26316C14.4211 6.86842 15.0526 6.86842 15.4211 7.26316L19.9737 11.8158C20.1579 12 20.2632 12.2632 20.2632 12.5263C20.2632 12.7895 20.1842 13.0263 20 13.2105Z" fill="white"/>
</svg>
