<svg width="28" height="32" viewBox="0 0 28 32" fill="none" xmlns="http://www.w3.org/2000/svg">
<rect y="2" width="28" height="28" rx="14" fill="#B84583"/>
<path d="M15.1261 18.72H12.2061V15.04C12.6328 15.1467 13.0928 15.1667 13.5861 15.1C14.0794 15.0333 14.4728 14.8733 14.7661 14.62C15.1661 14.26 15.3661 13.8 15.3661 13.24C15.3661 12.84 15.2394 12.5 14.9861 12.22C14.7461 11.9667 14.4261 11.84 14.0261 11.84C13.5994 11.84 13.2594 11.9667 13.0061 12.22C12.7528 12.4867 12.6394 12.86 12.6661 13.34H9.58609C9.59943 12.2467 9.96609 11.3267 10.6861 10.58C11.4728 9.76667 12.5728 9.36 13.9861 9.36C15.3594 9.36 16.4594 9.76 17.2861 10.56C18.0328 11.2933 18.4061 12.2133 18.4061 13.32C18.4061 14.2933 18.0728 15.14 17.4061 15.86C16.8061 16.5133 16.0461 16.9067 15.1261 17.04V18.72ZM12.4461 22.78C12.0994 22.42 11.9261 21.9867 11.9261 21.48C11.9261 20.9733 12.0994 20.5467 12.4461 20.2C12.8061 19.84 13.2394 19.66 13.7461 19.66C14.2528 19.66 14.6794 19.84 15.0261 20.2C15.3861 20.5467 15.5661 20.9733 15.5661 21.48C15.5661 21.9867 15.3861 22.42 15.0261 22.78C14.6794 23.1267 14.2528 23.3 13.7461 23.3C13.2394 23.3 12.8061 23.1267 12.4461 22.78Z" fill="white"/>
</svg>
