<svg width="14" height="26" viewBox="0 0 14 26" fill="none" xmlns="http://www.w3.org/2000/svg">
<path d="M0.133303 25.1332C0.133172 25.0193 0.155537 24.9065 0.199115 24.8013C0.242694 24.6961 0.306625 24.6006 0.387236 24.5202L11.9077 12.9948L0.387237 1.46936C0.229366 1.30584 0.142011 1.08683 0.143986 0.859493C0.14596 0.632161 0.237107 0.4147 0.397794 0.253946C0.558481 0.093192 0.775852 0.00200765 1.00309 3.22078e-05C1.23033 -0.00194324 1.44925 0.0854483 1.6127 0.243384L13.746 12.3818C13.8265 12.4622 13.8904 12.5578 13.934 12.663C13.9776 12.7682 14 12.8809 14 12.9948C14 13.1086 13.9776 13.2214 13.934 13.3265C13.8904 13.4317 13.8265 13.5273 13.746 13.6078L1.6127 25.7461C1.4915 25.8674 1.33709 25.9499 1.169 25.9833C1.0009 26.0168 0.826675 25.9996 0.668336 25.934C0.509995 25.8684 0.374654 25.7573 0.279421 25.6148C0.184188 25.4722 0.13334 25.3046 0.133303 25.1332Z" fill="black" fill-opacity="0.12"/>
</svg>
