<svg width="79" height="56" viewBox="0 0 79 56" fill="none" xmlns="http://www.w3.org/2000/svg">
<path d="M66.213 14.9237C66.0951 14.7403 65.933 14.5895 65.7416 14.4851C65.5503 14.3806 65.3357 14.3259 65.1177 14.3259H52.0942V6.51177C52.0942 6.16636 51.957 5.8351 51.7127 5.59086C51.4685 5.34662 51.1372 5.20941 50.7918 5.20941H1.30235C0.956949 5.20941 0.62569 5.34662 0.381451 5.59086C0.137212 5.8351 0 6.16636 0 6.51177V48.1871C0 48.5325 0.137212 48.8638 0.381451 49.108C0.62569 49.3523 0.956949 49.4895 1.30235 49.4895H10.536C10.8421 51.3095 11.7833 52.9622 13.1924 54.1541C14.6015 55.346 16.3874 56 18.233 56C20.0786 56 21.8644 55.346 23.2735 54.1541C24.6826 52.9622 25.6238 51.3095 25.9299 49.4895H54.8161C55.1222 51.3095 56.0633 52.9622 57.4724 54.1541C58.8815 55.346 60.6674 56 62.513 56C64.3586 56 66.1445 55.346 67.5536 54.1541C68.9627 52.9622 69.9038 51.3095 70.2099 49.4895H76.8389C77.1843 49.4895 77.5156 49.3523 77.7598 49.108C78.0041 48.8638 78.1413 48.5325 78.1413 48.1871V33.8612C78.1413 33.6114 78.0694 33.3668 77.9342 33.1566L66.213 14.9237ZM67.7224 22.0879L73.6156 31.2565H57.3036V22.14H67.7224V22.0879ZM18.233 53.3965C17.2026 53.3965 16.1955 53.091 15.3388 52.5186C14.4821 51.9462 13.8144 51.1326 13.4201 50.1807C13.0258 49.2288 12.9226 48.1813 13.1236 47.1708C13.3246 46.1603 13.8208 45.232 14.5493 44.5035C15.2779 43.7749 16.2061 43.2788 17.2167 43.0778C18.2272 42.8768 19.2746 42.9799 20.2265 43.3742C21.1784 43.7685 21.992 44.4362 22.5644 45.2929C23.1369 46.1496 23.4424 47.1568 23.4424 48.1871C23.4424 49.5687 22.8935 50.8938 21.9166 51.8707C20.9396 52.8477 19.6146 53.3965 18.233 53.3965ZM18.233 40.373C16.3881 40.3764 14.6038 41.0318 13.1954 42.2234C11.787 43.4149 10.8451 45.066 10.536 46.8848H2.60471V44.28H9.11648V41.6753H2.60471V7.81412H49.4895V10.4188H5.20942V13.0235H49.4895V41.6753H27.3494V44.28H49.4895V46.8848H25.9299C25.6209 45.066 24.6789 43.4149 23.2705 42.2234C21.8621 41.0318 20.0778 40.3764 18.233 40.373ZM62.513 53.3965C61.4827 53.3965 60.4755 53.091 59.6188 52.5186C58.7621 51.9462 58.0944 51.1326 57.7001 50.1807C57.3059 49.2288 57.2027 48.1813 57.4037 47.1708C57.6047 46.1603 58.1009 45.232 58.8294 44.5035C59.558 43.7749 60.4862 43.2788 61.4967 43.0778C62.5072 42.8768 63.5547 42.9799 64.5066 43.3742C65.4585 43.7685 66.2721 44.4362 66.8445 45.2929C67.4169 46.1496 67.7224 47.1568 67.7224 48.1871C67.7224 49.5687 67.1736 50.8938 66.1966 51.8707C65.2197 52.8477 63.8946 53.3965 62.513 53.3965ZM70.2099 46.8848C69.9038 45.0647 68.9627 43.412 67.5536 42.2201C66.1445 41.0282 64.3586 40.3742 62.513 40.3742C60.6674 40.3742 58.8815 41.0282 57.4724 42.2201C56.0633 43.412 55.1222 45.0647 54.8161 46.8848H52.0942V16.9306H64.4066L66.0815 19.5353H56.0012C55.6558 19.5353 55.3246 19.6725 55.0803 19.9168C54.8361 20.161 54.6989 20.4923 54.6989 20.8377V32.5589C54.6989 32.9043 54.8361 33.2355 55.0803 33.4798C55.3246 33.724 55.6558 33.8612 56.0012 33.8612H75.2904L75.5366 34.2441V41.6753H71.6295V44.28H75.5366V46.8848H70.2099Z" fill="#51B2E8"/>
<path d="M19.5354 46.8848H16.9307V49.4895H19.5354V46.8848Z" fill="#51B2E8"/>
<path d="M63.8154 46.8848H61.2107V49.4895H63.8154V46.8848Z" fill="#51B2E8"/>
<path d="M23.4424 0H5.20947V2.60471H23.4424V0Z" fill="#51B2E8"/>
<path d="M2.60471 0H0V2.60471H2.60471V0Z" fill="#51B2E8"/>
</svg>
