<svg width="75" height="57" viewBox="0 0 75 57" fill="none" xmlns="http://www.w3.org/2000/svg">
<path d="M73.7069 54.4091H71.1207V1.29545C71.1207 0.951879 70.9845 0.622374 70.742 0.379429C70.4994 0.136484 70.1705 0 69.8276 0H28.4483C28.1626 0.000891063 27.8852 0.0965521 27.6595 0.272044L4.38362 18.4084C4.22714 18.5291 4.10032 18.6841 4.0129 18.8615C3.92548 19.0389 3.87979 19.234 3.87931 19.4318V54.4091H1.2931C0.950151 54.4091 0.621245 54.5456 0.378741 54.7885C0.136237 55.0315 0 55.361 0 55.7045C0 56.0481 0.136237 56.3776 0.378741 56.6206C0.621245 56.8635 0.950151 57 1.2931 57H73.7069C74.0499 57 74.3788 56.8635 74.6213 56.6206C74.8638 56.3776 75 56.0481 75 55.7045C75 55.361 74.8638 55.0315 74.6213 54.7885C74.3788 54.5456 74.0499 54.4091 73.7069 54.4091ZM12.931 54.4091V28.5H43.9655V54.4091H12.931ZM54.3103 54.4091V41.4545H62.069V54.4091H54.3103ZM64.6552 54.4091V40.1591C64.6552 39.8155 64.5189 39.486 64.2764 39.2431C64.0339 39.0001 63.705 38.8636 63.3621 38.8636H53.0172C52.6743 38.8636 52.3454 39.0001 52.1029 39.2431C51.8604 39.486 51.7241 39.8155 51.7241 40.1591V54.4091H46.5517V27.2045C46.5517 26.861 46.4155 26.5315 46.173 26.2885C45.9305 26.0456 45.6016 25.9091 45.2586 25.9091H11.6379C11.295 25.9091 10.9661 26.0456 10.7236 26.2885C10.4811 26.5315 10.3448 26.861 10.3448 27.2045V54.4091H6.46552V20.0666L28.8879 2.59091H68.5345V54.4091H64.6552Z" fill="#51B2E8"/>
<path d="M60.7758 33.6818H55.6034C55.2605 33.6818 54.9315 33.8183 54.689 34.0613C54.4465 34.3042 54.3103 34.6337 54.3103 34.9773C54.3103 35.3209 54.4465 35.6504 54.689 35.8933C54.9315 36.1362 55.2605 36.2727 55.6034 36.2727H60.7758C61.1188 36.2727 61.4477 36.1362 61.6902 35.8933C61.9327 35.6504 62.0689 35.3209 62.0689 34.9773C62.0689 34.6337 61.9327 34.3042 61.6902 34.0613C61.4477 33.8183 61.1188 33.6818 60.7758 33.6818Z" fill="#51B2E8"/>
<path d="M31.0344 20.7273H25.862C25.519 20.7273 25.1901 20.8638 24.9476 21.1067C24.7051 21.3497 24.5688 21.6792 24.5688 22.0227C24.5688 22.3663 24.7051 22.6958 24.9476 22.9388C25.1901 23.1817 25.519 23.3182 25.862 23.3182H31.0344C31.3773 23.3182 31.7062 23.1817 31.9487 22.9388C32.1912 22.6958 32.3275 22.3663 32.3275 22.0227C32.3275 21.6792 32.1912 21.3497 31.9487 21.1067C31.7062 20.8638 31.3773 20.7273 31.0344 20.7273Z" fill="#51B2E8"/>
<path d="M62.0691 12.9545H51.7243C51.3813 12.9545 51.0524 13.091 50.8099 13.334C50.5674 13.5769 50.4312 13.9064 50.4312 14.25V19.4318C50.4312 19.7754 50.5674 20.1049 50.8099 20.3478C51.0524 20.5908 51.3813 20.7273 51.7243 20.7273H62.0691C62.412 20.7273 62.7409 20.5908 62.9834 20.3478C63.226 20.1049 63.3622 19.7754 63.3622 19.4318V14.25C63.3622 13.9064 63.226 13.5769 62.9834 13.334C62.7409 13.091 62.412 12.9545 62.0691 12.9545ZM53.0174 15.5454H55.6036V18.1363H53.0174V15.5454ZM60.776 18.1363H58.1898V15.5454H60.776V18.1363Z" fill="#51B2E8"/>
<path d="M37.5001 33.6818H19.3966C19.0537 33.6818 18.7248 33.8183 18.4823 34.0613C18.2398 34.3042 18.1035 34.6337 18.1035 34.9773C18.1035 35.3209 18.2398 35.6504 18.4823 35.8933C18.7248 36.1362 19.0537 36.2727 19.3966 36.2727H37.5001C37.843 36.2727 38.1719 36.1362 38.4144 35.8933C38.6569 35.6504 38.7932 35.3209 38.7932 34.9773C38.7932 34.6337 38.6569 34.3042 38.4144 34.0613C38.1719 33.8183 37.843 33.6818 37.5001 33.6818Z" fill="#51B2E8"/>
<path d="M37.5001 40.1591H19.3966C19.0537 40.1591 18.7248 40.2955 18.4823 40.5385C18.2398 40.7814 18.1035 41.1109 18.1035 41.4545C18.1035 41.7981 18.2398 42.1276 18.4823 42.3705C18.7248 42.6135 19.0537 42.75 19.3966 42.75H37.5001C37.843 42.75 38.1719 42.6135 38.4144 42.3705C38.6569 42.1276 38.7932 41.7981 38.7932 41.4545C38.7932 41.1109 38.6569 40.7814 38.4144 40.5385C38.1719 40.2955 37.843 40.1591 37.5001 40.1591Z" fill="#51B2E8"/>
<path d="M37.5001 46.6364H19.3966C19.0537 46.6364 18.7248 46.7728 18.4823 47.0158C18.2398 47.2587 18.1035 47.5882 18.1035 47.9318C18.1035 48.2754 18.2398 48.6049 18.4823 48.8478C18.7248 49.0908 19.0537 49.2273 19.3966 49.2273H37.5001C37.843 49.2273 38.1719 49.0908 38.4144 48.8478C38.6569 48.6049 38.7932 48.2754 38.7932 47.9318C38.7932 47.5882 38.6569 47.2587 38.4144 47.0158C38.1719 46.7728 37.843 46.6364 37.5001 46.6364Z" fill="#51B2E8"/>
</svg>
