<svg width="67" height="59" viewBox="0 0 67 59" fill="none" xmlns="http://www.w3.org/2000/svg">
<path d="M16.9055 47.8679C16.245 47.8679 15.5993 48.0638 15.0501 48.4307C14.5009 48.7977 14.0729 49.3193 13.8201 49.9295C13.5674 50.5398 13.5012 51.2112 13.6301 51.8591C13.7589 52.5069 14.077 53.102 14.5441 53.569C15.0111 54.0361 15.6062 54.3541 16.254 54.483C16.9018 54.6119 17.5733 54.5457 18.1836 54.2929C18.7938 54.0402 19.3154 53.6121 19.6823 53.0629C20.0493 52.5137 20.2452 51.8681 20.2452 51.2075C20.2452 50.3218 19.8933 49.4724 19.267 48.8461C18.6407 48.2198 17.7913 47.8679 16.9055 47.8679ZM16.9055 52.3207C16.6854 52.3207 16.4701 52.2555 16.2871 52.1331C16.104 52.0108 15.9613 51.837 15.8771 51.6335C15.7928 51.4301 15.7708 51.2063 15.8137 50.9904C15.8567 50.7744 15.9627 50.5761 16.1184 50.4204C16.2741 50.2647 16.4724 50.1587 16.6884 50.1157C16.9043 50.0728 17.1281 50.0948 17.3315 50.1791C17.535 50.2633 17.7088 50.406 17.8311 50.5891C17.9535 50.7721 18.0187 50.9874 18.0187 51.2075C18.0187 51.5028 17.9015 51.7859 17.6927 51.9947C17.4839 52.2035 17.2008 52.3207 16.9055 52.3207Z" fill="#51B2E8"/>
<path d="M53.6414 47.8679C52.9809 47.8679 52.3352 48.0638 51.786 48.4307C51.2368 48.7977 50.8087 49.3193 50.556 49.9295C50.3032 50.5398 50.2371 51.2112 50.3659 51.8591C50.4948 52.5069 50.8129 53.102 51.2799 53.569C51.747 54.0361 52.342 54.3541 52.9899 54.483C53.6377 54.6119 54.3092 54.5457 54.9194 54.2929C55.5296 54.0402 56.0512 53.6121 56.4182 53.0629C56.7851 52.5137 56.981 51.8681 56.981 51.2075C56.981 50.3218 56.6291 49.4724 56.0028 48.8461C55.3765 48.2198 54.5271 47.8679 53.6414 47.8679ZM53.6414 52.3207C53.4212 52.3207 53.206 52.2555 53.0229 52.1331C52.8399 52.0108 52.6972 51.837 52.6129 51.6335C52.5287 51.4301 52.5066 51.2063 52.5496 50.9904C52.5925 50.7744 52.6985 50.5761 52.8542 50.4204C53.0099 50.2647 53.2083 50.1587 53.4242 50.1157C53.6401 50.0728 53.864 50.0948 54.0674 50.1791C54.2708 50.2633 54.4447 50.406 54.567 50.5891C54.6893 50.7721 54.7546 50.9874 54.7546 51.2075C54.7546 51.5028 54.6373 51.7859 54.4285 51.9947C54.2198 52.2035 53.9366 52.3207 53.6414 52.3207Z" fill="#51B2E8"/>
<path d="M50.302 37.8491H48.0756C47.7804 37.8491 47.4972 37.9663 47.2885 38.1751C47.0797 38.3839 46.9624 38.667 46.9624 38.9623C46.9624 39.2575 47.0797 39.5407 47.2885 39.7494C47.4972 39.9582 47.7804 40.0755 48.0756 40.0755H50.302C50.5973 40.0755 50.8804 39.9582 51.0892 39.7494C51.2979 39.5407 51.4152 39.2575 51.4152 38.9623C51.4152 38.667 51.2979 38.3839 51.0892 38.1751C50.8804 37.9663 50.5973 37.8491 50.302 37.8491Z" fill="#51B2E8"/>
<path d="M54.4285 14.7979C54.2198 14.5891 53.9367 14.4718 53.6415 14.4717H43.6226C43.3274 14.4717 43.0442 14.589 42.8355 14.7977C42.6267 15.0065 42.5094 15.2897 42.5094 15.5849V37.8491H40.283V34.5094C40.283 34.2142 40.1657 33.931 39.9569 33.7223C39.7482 33.5135 39.465 33.3962 39.1698 33.3962H38.0566V27.8302C38.0566 27.5349 37.9393 27.2518 37.7305 27.043C37.5218 26.8343 37.2386 26.717 36.9434 26.717H36.4068L17.814 0.469774C17.7112 0.324572 17.575 0.20614 17.417 0.124403C17.2589 0.0426659 17.0836 6.54166e-06 16.9056 0H9.11318C8.98151 0.00265357 8.85141 0.0290518 8.72912 0.0779247C8.69571 0.0902017 8.66301 0.104324 8.63116 0.120226C8.53551 0.16624 8.44702 0.225858 8.36844 0.297227C8.35175 0.312812 8.33282 0.32283 8.31724 0.338415C8.24002 0.416335 8.17475 0.505239 8.12354 0.602245C8.11575 0.61783 8.08569 0.713566 8.07456 0.741396C8.03972 0.863122 8.01478 0.987464 7.99997 1.11321V13.3585H5.77356C5.60446 13.3585 5.4376 13.3971 5.28564 13.4713C5.13368 13.5454 5.0006 13.6532 4.89652 13.7865C4.79244 13.9198 4.72009 14.075 4.68495 14.2404C4.64982 14.4058 4.65283 14.577 4.69375 14.7411L5.80695 19.1939C5.86705 19.4349 6.00597 19.6488 6.20163 19.8017C6.39729 19.9546 6.63845 20.0377 6.88676 20.0377H7.99997V22.2642C7.99997 22.5594 8.11726 22.8425 8.32602 23.0513C8.53479 23.2601 8.81794 23.3774 9.11318 23.3774C9.77369 23.3774 10.4194 23.5732 10.9686 23.9402C11.5178 24.3071 11.9458 24.8287 12.1986 25.439C12.4514 26.0492 12.5175 26.7207 12.3886 27.3685C12.2598 28.0163 11.9417 28.6114 11.4746 29.0784C11.0076 29.5455 10.4125 29.8636 9.76471 29.9924C9.11688 30.1213 8.4454 30.0552 7.83516 29.8024C7.22493 29.5496 6.70335 29.1216 6.33638 28.5724C5.96942 28.0232 5.77356 27.3775 5.77356 26.717C5.77356 26.4217 5.65627 26.1386 5.44751 25.9298C5.23874 25.7211 4.95559 25.6038 4.66035 25.6038C4.36511 25.6038 4.08196 25.7211 3.87319 25.9298C3.66443 26.1386 3.54714 26.4217 3.54714 26.717C3.54736 27.7701 3.84634 28.8016 4.40936 29.6916C4.97238 30.5815 5.77634 31.2936 6.72786 31.7449C7.67938 32.1962 8.73942 32.3683 9.78485 32.2412C10.8303 32.1141 11.8182 31.6931 12.6339 31.0269C13.4496 30.3608 14.0595 29.4769 14.3929 28.4779C14.7263 27.479 14.7695 26.4059 14.5174 25.3834C14.2653 24.3609 13.7283 23.4309 12.9687 22.7014C12.2092 21.9719 11.2582 21.4729 10.2264 21.2623V20.0377H11.3396C11.5879 20.0377 11.8291 19.9546 12.0247 19.8017C12.2204 19.6488 12.3593 19.4349 12.4194 19.1939L13.5326 14.7411C13.5735 14.577 13.5765 14.4058 13.5414 14.2404C13.5063 14.075 13.4339 13.9198 13.3298 13.7865C13.2258 13.6532 13.0927 13.5454 12.9407 13.4713C12.7888 13.3971 12.6219 13.3585 12.4528 13.3585H10.2264V4.61091L25.8848 26.717H25.8113C25.5161 26.717 25.2329 26.8343 25.0241 27.043C24.8154 27.2518 24.6981 27.5349 24.6981 27.8302V33.3962H23.5849C23.2896 33.3962 23.0065 33.5135 22.7977 33.7223C22.589 33.931 22.4717 34.2142 22.4717 34.5094V37.8491H1.32073C1.02549 37.8491 0.742337 37.9663 0.53357 38.1751C0.324804 38.3839 0.20752 38.667 0.20752 38.9623V47.8679C0.20752 48.1632 0.324804 48.4463 0.53357 48.6551C0.742337 48.8638 1.02549 48.9811 1.32073 48.9811H9.44714C9.03834 50.3406 9.01067 51.7862 9.36715 53.1603C9.72364 54.5345 10.4506 55.7843 11.4687 56.7736H1.32073C1.02549 56.7736 0.742337 56.8909 0.53357 57.0996C0.324804 57.3084 0.20752 57.5916 0.20752 57.8868C0.20752 58.182 0.324804 58.4652 0.53357 58.674C0.742337 58.8827 1.02549 59 1.32073 59H38.0566C38.3518 59 38.635 58.8827 38.8437 58.674C39.0525 58.4652 39.1698 58.182 39.1698 57.8868C39.1698 57.5916 39.0525 57.3084 38.8437 57.0996C38.635 56.8909 38.3518 56.7736 38.0566 56.7736H22.3481C23.3662 55.7843 24.0932 54.5345 24.4497 53.1603C24.8062 51.7862 24.7785 50.3406 24.3697 48.9811H46.183C45.7742 50.3406 45.7465 51.7862 46.103 53.1603C46.4595 54.5345 47.1864 55.7843 48.2046 56.7736H42.5094C42.2142 56.7736 41.931 56.8909 41.7222 57.0996C41.5135 57.3084 41.3962 57.5916 41.3962 57.8868C41.3962 58.182 41.5135 58.4652 41.7222 58.674C41.931 58.8827 42.2142 59 42.5094 59H65.8868C66.182 59 66.4651 58.8827 66.6739 58.674C66.8827 58.4652 67 58.182 67 57.8868C67 57.5916 66.8827 57.3084 66.6739 57.0996C66.4651 56.8909 66.182 56.7736 65.8868 56.7736H59.084C60.1021 55.7843 60.829 54.5345 61.1855 53.1603C61.542 51.7862 61.5143 50.3406 61.1055 48.9811H65.8868C66.182 48.9811 66.4651 48.8638 66.6739 48.6551C66.8827 48.4463 67 48.1632 67 47.8679V27.8302C66.9999 27.535 66.8826 27.2519 66.6738 27.0431L54.4285 14.7979ZM10.4702 17.8113H7.75618L7.19958 15.5849H11.0268L10.4702 17.8113ZM53.1806 16.6981L64.7736 28.2911V30.0566H51.4151V16.6981H53.1806ZM11.2661 2.22642H16.329L33.6772 26.717H28.6143L11.2661 2.22642ZM26.9245 28.9434H35.8302V33.3962H26.9245V28.9434ZM24.6981 35.6226H38.0566V37.8491H24.6981V35.6226ZM16.9056 56.7736C15.8048 56.7736 14.7286 56.4471 13.8133 55.8355C12.898 55.2239 12.1846 54.3546 11.7633 53.3376C11.342 52.3205 11.2318 51.2014 11.4465 50.1217C11.6613 49.042 12.1914 48.0502 12.9698 47.2718C13.7483 46.4933 14.74 45.9632 15.8198 45.7485C16.8995 45.5337 18.0186 45.6439 19.0357 46.0652C20.0527 46.4865 20.922 47.1999 21.5336 48.1152C22.1452 49.0306 22.4717 50.1067 22.4717 51.2076C22.4699 52.6832 21.8829 54.0979 20.8395 55.1414C19.796 56.1848 18.3813 56.7718 16.9056 56.7736ZM16.9056 43.4151C15.651 43.416 14.4151 43.7201 13.3033 44.3016C12.1915 44.8831 11.2367 45.7247 10.5203 46.7547H2.43393V44.5283H4.66035C4.95559 44.5283 5.23874 44.411 5.44751 44.2023C5.65627 43.9935 5.77356 43.7103 5.77356 43.4151C5.77356 43.1199 5.65627 42.8367 5.44751 42.6279C5.23874 42.4192 4.95559 42.3019 4.66035 42.3019H2.43393V40.0755H42.5094V46.7547H23.291C22.5746 45.7247 21.6198 44.8831 20.508 44.3016C19.3962 43.7201 18.1603 43.416 16.9056 43.4151ZM53.6415 56.7736C52.5406 56.7736 51.4645 56.4471 50.5492 55.8355C49.6338 55.2239 48.9204 54.3546 48.4991 53.3376C48.0779 52.3205 47.9676 51.2014 48.1824 50.1217C48.3972 49.042 48.9273 48.0502 49.7057 47.2718C50.4841 46.4933 51.4759 45.9632 52.5556 45.7485C53.6353 45.5337 54.7544 45.6439 55.7715 46.0652C56.7886 46.4865 57.6579 47.1999 58.2695 48.1152C58.8811 49.0306 59.2075 50.1067 59.2075 51.2076C59.2057 52.6832 58.6188 54.0979 57.5753 55.1414C56.5319 56.1848 55.1171 56.7718 53.6415 56.7736ZM60.0268 46.7547C59.311 45.7241 58.3563 44.8821 57.2444 44.3006C56.1324 43.7191 54.8963 43.4154 53.6415 43.4154C52.3867 43.4154 51.1505 43.7191 50.0386 44.3006C48.9266 44.8821 47.972 45.7241 47.2561 46.7547H44.7358V16.6981H49.1886V31.1698C49.1886 31.4651 49.3059 31.7482 49.5147 31.957C49.7235 32.1657 50.0066 32.283 50.3019 32.283H64.7736V35.6226H61.4339C60.5482 35.6226 59.6988 35.9745 59.0725 36.6008C58.4462 37.2271 58.0943 38.0765 58.0943 38.9623C58.0943 39.848 58.4462 40.6974 59.0725 41.3237C59.6988 41.95 60.5482 42.3019 61.4339 42.3019H64.7736V46.7547H60.0268ZM64.7736 40.0755H61.4339C61.1387 40.0755 60.8555 39.9582 60.6468 39.7494C60.438 39.5407 60.3207 39.2575 60.3207 38.9623C60.3207 38.667 60.438 38.3839 60.6468 38.1751C60.8555 37.9663 61.1387 37.8491 61.4339 37.8491H64.7736V40.0755Z" fill="#51B2E8"/>
</svg>
