<svg width="60" height="60" viewBox="0 0 60 60" fill="none" xmlns="http://www.w3.org/2000/svg">
<path d="M59 46H58V39V31V23V15V7V0H56V6H52V0H50V7V15V23V31V39V46H42.339L27.132 34.372C28.251 33.662 29 32.42 29 31H27C27 32.103 26.103 32.999 25.001 33C25 33 25 33 24.999 33C23.897 33 23 32.103 23 31C23 29.897 23.897 29 25 29C25.553 29 26 28.552 26 28V23H29C29.553 23 30 22.552 30 22V18.161L31.948 12.316C32.051 12.011 31.999 11.676 31.811 11.415C31.623 11.154 31.321 11 31 11H30V10V0H28V6.026C27.162 5.391 26.13 5 25 5C23.87 5 22.838 5.391 22 6.026V0H20V10V11H19C18.679 11 18.377 11.154 18.188 11.416C18 11.677 17.949 12.012 18.051 12.317L20 18.161V22C20 22.552 20.447 23 21 23H24V27.126C22.276 27.571 21 29.139 21 31C21 32.42 21.749 33.662 22.868 34.372L7.661 46H1C0.447 46 0 46.448 0 47V53V59C0 59.552 0.447 60 1 60H59C59.553 60 60 59.552 60 59V53V47C60 46.448 59.553 46 59 46ZM20.388 13H21H29H29.612L28.279 17H21.72L20.388 13ZM22 10C22 8.346 23.346 7 25 7C26.654 7 28 8.346 28 10V11H22V10ZM22 19H28V21H22V19ZM53 32H56V36L53 32ZM56 30H53L56 26V30ZM53 16H56V20L53 16ZM56 14H53L56 10V14ZM52 12V8H55L52 12ZM55 22H52V18L55 22ZM52 24H55L52 28V24ZM55 38H52V34L55 38ZM52 40H55L52 44V40ZM56 42V46H53L56 42ZM25 35.259L39.046 46H10.954L25 35.259ZM2 48H8H42H51H57H58V52H2V48ZM58 58H2V54H58V58Z" fill="#51B2E8"/>
</svg>
